# xmcd
# Track frame offsets:
# 150
# 21341
# 38328
# 57632
# 75642
# 100680
# 119042
# 135497
# 156733
# 170645
# 185368
# 200672
# 217862
# 234625
# 247912
# 263632
# 280601
# 296404
# 312053
# 333941
#
# Disc length: 4718 seconds
# Revision: 0
# Processed by: cddbd v1.5.2PL0 Copyright (c) Steve Scherf et al.
# Submitted via: VisiTrax 2.11.1.266 - For more info visit www.synapsa.com
#
DISCID=1b126c14
DTITLE=Various Artists-See List - Country Box. The
DYEAR=2010
DGENRE=Country
TTITLE0=Sugarland - Stay
TTITLE1=Carrie Underwood - Jesus, Take the Wheel
TTITLE2=Gary Allan - Smoke Rings in the Dark
TTITLE3=Alan Jackson - Where  Come From
TTITLE4=Toby Keith - I Love This Bar
TTITLE5=Phil Vassar - Carlene
TTITLE6=Lee Kernaghan - Planet Country
TTITLE7=Brad Paisley - He Didn"t Have to Be
TTITLE8=Joe Nichols - Gimme That Girl
TTITLE9=Troy Cassar-Daley - Chasin Rodeo
TTITLE10=Kenny Chesney - She"s Got it All
TTITLE11=Adam Harvey - Shake of a Hand. The
TTITLE12=Eli Young Band - Always the Love Songs
TTITLE13=Doc Walker - I"m Gonna Make You Love Me
TTITLE14=Laura Bell Bundy - Giddy On Up
TTITLE15=Emerson Drive - I Love This Road
TTITLE16=Catherine Britt - Little Wildflower
TTITLE17=Jo Dee Messina - Heads Carolina, Tails California
TTITLE18=Montgomery Gentry - Hell Yeah
TTITLE19=Shooter Jennings and George Jones - 4th of July
EXTD=
EXTT0=
EXTT1=
EXTT2=
EXTT3=
EXTT4=
EXTT5=
EXTT6=
EXTT7=
EXTT8=
EXTT9=
EXTT10=
EXTT11=
EXTT12=
EXTT13=
EXTT14=
EXTT15=
EXTT16=
EXTT17=
EXTT18=
EXTT19=
PLAYORDER=
